# xmcd
#
# Track frame offsets:
#	150
#	10750
#	23882
#	33620
#	51022
#	70092
#	86057
#	97362
#	108117
#	118535
#	130037
#	145775
#
# Disc length: 2081 seconds
# Revision: 0
# Processed by: cddbd v1.5.2PL0 Copyright (c) Steve Scherf et al.
# Submitted via: dBpowerAMP V12.0
#
DISCID=9c081f0c
DTITLE=Thacker, Ernie - The Hangman
DYEAR=2008
DGENRE=Bluegrass
TTITLE0=The Ballad Of Charlie Dill
TTITLE1=Detroit City Chill
TTITLE2=This Drinkin' Will Kill Me
TTITLE3=Friday Once Again
TTITLE4=The Hangman
TTITLE5=Keith How Many
TTITLE6=I Wish You Knew
TTITLE7=Church Upon The Hill
TTITLE8=Pickin Up The Pieces
TTITLE9=Rollin' On These Rubber Wheels
TTITLE10=Sunday Morning Coming Down
TTITLE11=Word Of Mouth
EXTD=
EXTT0=
EXTT1=
EXTT2=
EXTT3=
EXTT4=
EXTT5=
EXTT6=
EXTT7=
EXTT8=
EXTT9=
EXTT10=
EXTT11=
PLAYORDER=
